# xmcd
#
# Track frame offsets:
#	150
#	17634
#	35256
#	59007
#	76852
#	105734
#	114734
#	132249
#	158912
#	176126
#	191351
#	221305
#
# Disc length: 3353 seconds
#
# Revision: 1
# Processed by: cddbd v1.4PL0 Copyright (c) Steve Scherf et al.
# Submitted via: audiograbber 1.80
#
DISCID=9d0d170c
DTITLE=The Cyclones - R.U.L.E.
DYEAR=1900
DGENRE=
TTITLE0=Shake That Thing
TTITLE1=Bang Bang Baby
TTITLE2=Strike Me Blind
TTITLE3=Hang Up and Drive
TTITLE4=Powerful Love
TTITLE5=Thanks for Turning On the Light
TTITLE6=Hook Me Up
TTITLE7=You Got Me Shakin'
TTITLE8=No Way Out
TTITLE9=Spaceman
TTITLE10=Postal Jack
TTITLE11=The Wind Cries Mary (live)
EXTD=
EXTT0=
EXTT1=
EXTT2=
EXTT3=
EXTT4=
EXTT5=
EXTT6=
EXTT7=
EXTT8=
EXTT9=
EXTT10=
EXTT11=
PLAYORDER=
